<svg version="1.1" xmlns="http://www.w3.org/2000/svg" xmlns:xlink="http://www.w3.org/1999/xlink" width="324.47155" height="414.94093" viewBox="0,0,324.47155,414.94093"><g transform="translate(-82.99399,-24.63168)"><g data-paper-data="{&quot;isPaintingLayer&quot;:true}" fill-rule="nonzero" stroke-linejoin="miter" stroke-miterlimit="10" stroke-dasharray="" stroke-dashoffset="0" style="mix-blend-mode: normal"><path d="M158.73036,152.50224c-1.49171,-24.75401 1.87785,-55.07386 21.73945,-71.33771c7.17135,-5.87234 17.03121,-11.02758 24.51091,-13.76165c8.31206,-3.03829 13.99673,-3.42217 16.39997,-5.58909c1.10014,-0.992 4.81543,-4.52897 3.11806,-5.44347c-2.49625,-1.34487 9.9658,4.83711 16.01528,7.60181c11.45055,5.23307 24.38522,12.35803 22.01767,8.22859c-9.35277,-16.31294 25.99508,9.01791 34.18281,17.08688c14.9441,14.72735 5.73052,26.09859 7.23442,51.05495c2.08007,34.51759 0.9855,65.91142 -14.56827,84.63227c-0.93465,1.12498 -5.37813,-3.43296 -6.42033,-2.26477c-1.59085,1.78308 0.1465,9.29802 -1.70836,10.97911c-0.97152,0.88048 -6.13957,-6.27032 -7.18691,-5.46897c-4.26629,3.26417 -5.01226,13.72646 -10.6355,14.1973c-1.75919,0.1473 -3.17616,-7.51164 -5.0117,-7.54701c-40.00541,-0.77122 -96.91205,-36.3103 -99.68757,-82.36828z" data-paper-data="{&quot;index&quot;:null}" fill="#220e00" stroke="#1d0800" stroke-width="0.5" stroke-linecap="butt"/><path d="M206.2652,259.68556c0,0 20.9194,-9.79383 22.88545,-20.87522c1.30373,-7.34825 -0.6199,-36.7248 -0.6199,-36.7248l30.01009,0.96807c0,0 -2.50073,25.12571 1.59728,35.57165c4.1303,10.52821 23.08843,22.5124 23.08843,22.5124c0,0 -25.16786,10.52336 -36.82425,9.83261c-9.80232,-0.58089 -40.13711,-11.28472 -40.13711,-11.28472z" fill="#4f1f00" stroke="#1e0c00" stroke-width="2" stroke-linecap="butt"/><g stroke-linecap="butt"><path d="M188.20172,390.3685l13.6916,-143.00124c0,0 24.60576,10.64903 41.83549,10.64903c15.3965,0 42.97161,-9.12773 42.97161,-9.12773v141.47997z" fill="#1f1f1f" stroke="#060606" stroke-width="2"/><path d="M189.9926,386.78672l35.75033,-134.18161c0,0 -0.53018,129.12739 16.50554,127.42859c13.92995,-1.38908 23.47166,-126.66795 23.47166,-126.66795l28.14385,133.421c0,0 -32.65115,9.12773 -49.37452,9.12773c-3.61739,0 -8.01021,-0.37573 -12.7149,-0.97473c-18.48395,-2.35335 -41.78195,-8.15301 -41.78195,-8.15301z" fill="#060606" stroke="none" stroke-width="0"/><g stroke="none"><g fill="none" stroke-width="1" font-family="sans-serif" font-weight="normal" font-size="12" text-anchor="start"/><path d="" fill="#ffffff" stroke-width="0.5"/></g></g><path d="M311.60258,230.00993c0,8.76824 -17.78561,26.04101 -27.78354,26.04101c-9.99793,0 -13.45614,-3.92067 -13.45614,-3.92067c0,0 -2.45786,-2.38889 -9.87771,-12.85932c-2.31003,-3.25979 -2.61036,-13.42371 -2.61036,-13.42371c0,0 53.72774,-4.60555 53.72774,4.16269z" fill="#002709" stroke="none" stroke-width="0" stroke-linecap="butt"/><path d="M195.03011,266.29203c0,0 -21.59465,-16.9107 -21.59465,-24.3469c0,-8.28064 21.59465,-23.07664 21.59465,-23.07664l33.48127,5.32311c0,0 2.02768,10.14539 0.44022,15.50748c-1.58821,5.36464 -8.09261,13.89021 -8.09261,13.89021z" fill="#002709" stroke="none" stroke-width="0" stroke-linecap="butt"/><path d="M230.07325,230.16637c0,2.07459 -32.52774,-0.4383 -34.16599,4.08669c-2.74202,7.5737 24.37378,22.6562 20.73406,22.6562c-5.8143,0 -37.87563,-13.69336 -37.87563,-19.24034c0,-5.54698 4.47142,-13.91596 10.28571,-13.91596c5.8143,0 41.02186,0.86648 41.02186,6.41345z" fill="#002709" stroke="none" stroke-width="0" stroke-linecap="butt"/><path d="M299.41108,228.10923c5.81431,0 10.52774,4.49673 10.52774,10.0437c0,5.54698 -32.06132,19.24034 -37.87563,19.24034c-3.63972,0 23.47608,-15.08247 20.73406,-22.6562c-1.26135,-3.48395 -27.12671,-1.34371 -36.0658,-1.78958c-2.67101,-0.13323 1.89982,-1.81981 1.89982,-2.29709c0,-5.54698 34.96553,-2.54117 40.77984,-2.54117z" data-paper-data="{&quot;index&quot;:null}" fill="#002709" stroke="none" stroke-width="0" stroke-linecap="butt"/><path d="M228.53075,202.08556l30.01009,0.96807c0,0 -1.93168,19.40834 0.38255,31.20111c-8.48009,-0.07606 -16.96921,-0.58945 -25.47048,-1.60279c-1.34081,-0.15982 -2.62243,-0.41041 -3.86191,-0.77483c0.14981,-11.31189 -1.06027,-29.79158 -1.06027,-29.79158z" fill="#411a00" stroke="none" stroke-width="0" stroke-linecap="butt"/><path d="M127.06376,339.27205c-5.1649,-11.84148 6.59497,-32.42746 18.89051,-50.30815c1.42967,-2.07909 5.4972,-4.45043 6.8351,-6.4283c2.3155,-3.4231 -0.39509,-6.98859 1.74979,-9.92715c6.87826,-9.42345 12.27028,-15.82773 12.27028,-15.82773c0,0 4.01886,4.29527 5.76203,5.21459c1.30954,0.69063 4.77331,1.48085 4.77331,1.48085c0,0 -2.14922,0.91293 -3.82594,1.8267c-1.33474,0.7274 -2.37006,1.33324 -1.78344,2.36038c1.02415,1.79322 7.84265,5.13171 11.7023,7.74239c1.83597,1.24186 2.48661,3.09275 2.48661,3.09275c0,0 -2.25971,47.20545 -12.87731,69.00226c-4.79542,9.84449 -35.8453,15.01442 -45.9832,-8.22857z" fill="#00380c" stroke="#000501" stroke-width="2" stroke-linecap="butt"/><path d="M184.59096,281.49837c0,0 -1.29531,32.72066 -8.07677,55.63531c-0.02188,-1.02774 3.74934,-25.80063 -2.14928,-40.4799c-5.89863,-14.67926 -14.4903,-4.396 -19.97653,-14.58218c0.82716,-1.125 0.72526,-8.13479 1.65106,-9.59868c4.91718,-7.77516 11.61557,-13.29032 11.61557,-13.29032c0,0 0.7554,2.36165 1.82144,3.22673c1.09574,0.88918 4.66633,2.03803 4.66633,2.03803c0,0 -5.4155,1.8435 -2.95242,5.0401c2.4204,3.1412 12.71209,7.62337 13.6067,9.08333c0.82179,1.34112 -0.2061,2.92758 -0.2061,2.92758z" fill="#002709" stroke="none" stroke-width="0" stroke-linecap="butt"/><g data-paper-data="{&quot;index&quot;:null}"><g><g stroke-linecap="butt"><path d="M310.39529,262.7063c-0.10007,0.11558 4.70525,1.96255 5.1399,4.69896c0.39766,2.50355 -14.8642,6.54375 -14.25689,10.66154c0.81054,5.49572 24.15738,94.40335 24.15738,94.40335c-9.47641,-1.27436 8.54382,14.97074 -5.60482,16.7156c-9.11662,1.1243 -35.0311,-16.90348 -44.01372,-14.85763c0,0 1.45688,5.54653 -1.10618,-6.81457c-0.7325,-3.53267 -1.79252,1.70025 -3.00838,-2.954c-3.87632,-14.8383 -7.83665,-49.61174 -9.31776,-61.06775c-1.11575,-8.63004 1.34559,-19.43348 0.54109,-23.73902c-0.70936,-3.79638 -2.65314,0.13916 -4.87685,-3.91114c-2.1347,-3.88819 -2.5666,-10.34179 -2.5666,-10.34179c0,0 8.99586,-11.74062 15.31202,-14.53245c13.75276,-6.07892 30.98682,-7.15383 35.39921,-16.72995c6.66752,-14.47027 -47.02722,-4.03734 -47.02722,-4.03734l-0.06158,-8.79203c0,0 43.66496,-22.62941 64.8396,14.85221c5.20957,9.22153 2.75495,10.73251 -3.69225,19.17887c-4.39219,5.75411 -7.23667,4.24059 -9.85696,7.26714z" fill="#00380c" stroke="#000501" stroke-width="2"/><path d="M259.95623,229.47002l-0.96807,-8.4706l11.37479,-3.63025l5.8084,10.89076z" data-paper-data="{&quot;index&quot;:null}" fill="#002709" stroke="none" stroke-width="0"/></g><path d="M305.11277,269.22444c-3.21076,0.14439 -14.55654,2.64558 -14.55654,2.64558l-1.96807,-3.4706l21.77479,-5.23025c0,0 1.40376,3.25317 1.33149,4.52484c-0.04893,0.861 -3.12309,3.36592 -3.12309,3.36592c0,0 -1.83775,-1.90837 -3.45858,-1.83549z" data-paper-data="{&quot;index&quot;:null}" fill="#000501" stroke="none" stroke-width="0" stroke-linecap="butt"/><path d="M289.47433,272.06871c0,0 -2.19326,-2.7026 -0.46948,-3.43889c3.76985,-1.61023 13.44535,-2.0631 15.2106,-2.49104c2.74557,-0.66559 6.33374,-3.75966 6.33374,-3.75966" fill="none" stroke="#000501" stroke-width="2" stroke-linecap="round"/></g><path d="M361.54417,338.93874c-10.1379,23.24299 -41.18778,18.07306 -45.9832,8.22857c-10.6176,-21.79681 -12.87731,-69.00226 -12.87731,-69.00226c0,0 0.65064,-1.85089 2.48661,-3.09275c3.85965,-2.61068 10.67815,-5.94917 11.7023,-7.74239c0.58662,-1.02714 -0.4487,-1.63298 -1.78344,-2.36038c-1.67672,-0.91377 -3.82594,-1.8267 -3.82594,-1.8267c0,0 3.46377,-0.79022 4.77331,-1.48085c1.74317,-0.91932 5.76203,-5.21459 5.76203,-5.21459c0,0 5.39202,6.40428 12.27028,15.82773c2.14488,2.93856 -0.56571,6.50405 1.74979,9.92715c1.3379,1.97787 5.40543,4.34921 6.8351,6.4283c12.29554,17.88069 24.05541,38.46667 18.89051,50.30815z" fill="#00380c" stroke="#000501" stroke-width="2" stroke-linecap="butt"/><path d="M303.81091,278.23746c0.89461,-1.45996 11.1863,-5.94213 13.6067,-9.08333c2.46308,-3.1966 -2.95242,-5.0401 -2.95242,-5.0401c0,0 3.57059,-1.14885 4.66633,-2.03803c1.06604,-0.86508 1.82144,-3.22673 1.82144,-3.22673c0,0 6.69839,5.51516 11.61557,13.29032c0.9258,1.46389 0.8239,8.47368 1.65106,9.59868c-5.48623,10.18618 -14.0779,-0.09708 -19.97653,14.58218c-5.89862,14.67927 -2.1274,39.45216 -2.14928,40.4799c-6.78146,-22.91465 -8.07677,-55.63531 -8.07677,-55.63531c0,0 -1.02789,-1.58646 -0.2061,-2.92758z" fill="#002709" stroke="none" stroke-width="0" stroke-linecap="butt"/></g><path d="M84.1198,436.79746c0,0 0.65909,-6.94387 2.13787,-15.83777c0.65024,-3.91076 3.45896,-2.69856 4.43983,-6.93882c1.04195,-4.50432 0.27814,-14.455 1.72495,-18.34312c1.71835,-4.61786 3.74229,-12.42789 8.83194,-20.03008c3.40958,-5.09274 9.84864,-9.54098 12.34319,-14.92384c3.9273,-8.47455 3.4096,-19.79262 3.4096,-19.79262l11.90851,-24.51719l53.49076,3.57479c0,0 -9.07247,38.90309 -16.12499,61.87109c-1.63492,5.32446 -4.94632,7.50751 -5.69634,10.96565c-0.96265,4.4385 4.34475,10.30916 3.85213,14.73646c-0.88606,7.96318 -3.62518,11.99206 -3.62518,11.99206z" data-paper-data="{&quot;index&quot;:null}" fill="#00380c" stroke="#000501" stroke-width="2" stroke-linecap="butt"/><path d="M124.83649,328.12565l12.21158,-28.11527l44.80872,17.11117l-2.50195,9.85823z" data-paper-data="{&quot;index&quot;:null}" fill="#00380c" stroke="none" stroke-width="0" stroke-linecap="butt"/><path d="M116.62277,362.88793c0,0 2.33361,-4.41786 2.91209,-6.96317c0.92211,-4.05725 2.08791,-15.03684 2.08791,-15.03684c0,0 1.07261,7.32262 4.875,11.125c4.61965,4.61965 12.67296,15.2526 21.87442,22.62572c5.58477,4.47507 14.75058,7.74928 14.75058,7.74928c0,0 -0.776,1.79885 -1.58594,2.93894c-0.60863,0.85673 -1.23642,1.01498 -1.56847,1.5684c-0.72252,1.20421 -1.84559,3.99265 -1.84559,3.99265c0,0 -3.60788,-5.13153 -7.03612,-8.23617c-5.45923,-4.94391 -18.47286,-14.45228 -27.52264,-18.44706c-3.57125,-1.57643 -6.94124,-1.31677 -6.94124,-1.31677z" fill="#002709" stroke="none" stroke-width="0" stroke-linecap="butt"/><path d="M94.37277,413.19096c0,0 -0.09748,-7.38546 0.38118,-10.9488c0.5182,-3.85772 2.61882,-11.38454 2.61882,-11.38454c0,0 1.74405,1.89989 2.88205,2.21026c1.28786,0.35123 4.45128,-0.21026 4.45128,-0.21026c0,0 -1.50897,4.22264 -1.02596,6.81878c0.38194,2.05295 2.69263,5.51455 2.69263,5.51455c0,0 -5.55917,2.37278 -7.46154,3.64103c-2.08149,1.38766 -4.53846,4.35897 -4.53846,4.35897z" fill="#002709" stroke="none" stroke-width="0" stroke-linecap="butt"/><path d="M329.64747,421.05113c0,0 -2.73912,-4.02888 -3.62518,-11.99206c-0.49262,-4.4273 4.81478,-10.29796 3.85213,-14.73646c-0.75002,-3.45814 -4.06142,-5.64119 -5.69634,-10.96565c-7.05252,-22.968 -16.12499,-61.87109 -16.12499,-61.87109l53.49076,-3.57479l11.90851,24.51719c0,0 -0.5177,11.31807 3.4096,19.79262c2.49455,5.38286 8.93361,9.8311 12.34319,14.92384c5.08965,7.60219 7.11359,15.41222 8.83194,20.03008c1.44681,3.88812 0.683,13.8388 1.72495,18.34312c0.98087,4.24026 3.78959,3.02806 4.43983,6.93882c1.47878,8.8939 2.13787,15.83777 2.13787,15.83777z" data-paper-data="{&quot;index&quot;:null}" fill="#00380c" stroke="#000501" stroke-width="2" stroke-linecap="butt"/><path d="M311.1047,328.47685l-2.50195,-9.85823l44.80872,-17.11117l12.21158,28.11527z" data-paper-data="{&quot;index&quot;:null}" fill="#00380c" stroke="none" stroke-width="0" stroke-linecap="butt"/><path d="M373.83677,364.38497c0,0 -3.36999,-0.25966 -6.94124,1.31677c-9.04978,3.99478 -22.06341,13.50315 -27.52264,18.44706c-3.42824,3.10464 -7.03612,8.23617 -7.03612,8.23617c0,0 -1.12307,-2.78844 -1.84559,-3.99265c-0.33205,-0.55342 -0.95984,-0.71167 -1.56847,-1.5684c-0.80994,-1.14009 -1.58594,-2.93894 -1.58594,-2.93894c0,0 9.16581,-3.27421 14.75058,-7.74928c9.20146,-7.37312 17.25477,-18.00607 21.87442,-22.62572c3.80239,-3.80238 4.875,-11.125 4.875,-11.125c0,0 1.1658,10.97959 2.08791,15.03684c0.57848,2.54531 2.91209,6.96317 2.91209,6.96317z" data-paper-data="{&quot;index&quot;:null}" fill="#002709" stroke="none" stroke-width="0" stroke-linecap="butt"/><path d="M396.08677,414.68801c0,0 -2.45697,-2.97131 -4.53846,-4.35897c-1.90237,-1.26825 -7.46154,-3.64103 -7.46154,-3.64103c0,0 2.31069,-3.4616 2.69263,-5.51455c0.48301,-2.59614 -1.02596,-6.81878 -1.02596,-6.81878c0,0 3.16342,0.56149 4.45128,0.21026c1.138,-0.31037 2.88205,-2.21026 2.88205,-2.21026c0,0 2.10062,7.52682 2.61882,11.38454c0.47866,3.56334 0.38118,10.9488 0.38118,10.9488z" data-paper-data="{&quot;index&quot;:null}" fill="#002709" stroke="none" stroke-width="0" stroke-linecap="butt"/><path d="M301.07707,147.41447c-0.56264,55.32488 -46.85411,73.61091 -59.0782,73.74587c-11.24901,0.12419 -72.01914,-15.21463 -73.14445,-70.53953c-0.12098,-5.94767 4.57921,-10.63147 6.06055,-16.49474c9.10092,-36.02191 41.42848,-69.43522 67.08388,-69.43522c29.8313,0 59.51038,40.22695 59.0782,82.72362z" fill="#4f1f00" stroke="#1e0c00" stroke-width="2" stroke-linecap="butt"/><path d="M284.74066,189.62647c0,8.21812 -29.2283,-3.60491 -48.19516,-15.63837c-10.10796,-6.41296 -15.90551,-15.78913 -15.90551,-15.78913c0,0 -20.38079,16.3162 -29.56576,18.39961c-9.21651,2.09057 -7.2373,-10.06236 -7.2373,-16.37203c0,-12.59777 16.0408,-22.81028 35.82813,-22.81028c19.78733,0 65.07559,39.61241 65.07559,52.21017z" fill="#411a00" stroke="none" stroke-width="0" stroke-linecap="butt"/><g><g stroke-linecap="butt"><path d="M177.95828,265.41243c-2.62029,-3.02655 -5.46477,-1.51303 -9.85696,-7.26714c-6.4472,-8.44636 -8.90182,-9.95734 -3.69225,-19.17887c21.17464,-37.48162 64.8396,-14.85221 64.8396,-14.85221l-0.06158,8.79203c0,0 -53.69474,-10.43293 -47.02722,4.03734c4.41239,9.57612 21.64645,10.65103 35.39921,16.72995c6.31616,2.79183 15.31202,14.53245 15.31202,14.53245c0,0 -0.4319,6.4536 -2.5666,10.34179c-2.22371,4.0503 -4.16749,0.11476 -4.87685,3.91114c-0.8045,4.30554 1.65684,15.10898 0.54109,23.73902c-1.48111,11.45601 -5.44144,46.22945 -9.31776,61.06775c-1.21586,4.65425 -2.27588,-0.57867 -3.00838,2.954c-2.56306,12.3611 -1.10618,6.81457 -1.10618,6.81457c-8.98262,-2.04585 -34.8971,15.98193 -44.01372,14.85763c-14.14864,-1.74486 3.87159,-17.98996 -5.60482,-16.7156c0,0 23.34684,-88.90763 24.15738,-94.40335c0.60731,-4.11779 -14.65455,-8.15799 -14.25689,-10.66154c0.43465,-2.73641 5.23997,-4.58338 5.1399,-4.69896z" fill="#00380c" stroke="#000501" stroke-width="2"/><path d="M212.18222,230.96606l5.8084,-10.89076l11.37479,3.63025l-0.96807,8.4706z" data-paper-data="{&quot;index&quot;:null}" fill="#002709" stroke="none" stroke-width="0"/></g><path d="M179.78222,273.76606c0,0 -3.07416,-2.50492 -3.12309,-3.36592c-0.07227,-1.27167 1.33149,-4.52484 1.33149,-4.52484l21.77479,5.23025l-1.96807,3.4706c0,0 -11.34578,-2.50119 -14.55654,-2.64558c-1.62083,-0.07288 -3.45858,1.83549 -3.45858,1.83549z" data-paper-data="{&quot;index&quot;:null}" fill="#000501" stroke="none" stroke-width="0" stroke-linecap="butt"/><path d="M177.80438,265.08525c0,0 3.58817,3.09407 6.33374,3.75966c1.76525,0.42794 11.44075,0.88081 15.2106,2.49104c1.72378,0.73629 -0.46948,3.43889 -0.46948,3.43889" fill="none" stroke="#000501" stroke-width="2" stroke-linecap="round"/></g><g fill="#ffffff" stroke="#c7c7c7" stroke-width="0.5" stroke-linecap="butt"><path d="M211.69721,295.61833c-1.5637,12.39953 -6.1679,22.21816 -10.28378,21.93051c-4.1159,-0.28765 -6.1848,-10.57266 -4.62107,-22.9722c1.5637,-12.39953 6.1679,-22.21816 10.28378,-21.93051c4.1159,0.28765 6.1848,10.57266 4.62107,22.9722z"/><path d="M215.86612,272.49698c-0.47438,3.76168 -4.47356,6.55845 -8.93242,6.24683c-4.45886,-0.31162 -7.68891,-3.61368 -7.21453,-7.37531c0.47438,-3.76168 4.47356,-6.55845 8.93242,-6.24683c4.45886,0.31162 7.68891,3.61368 7.21453,7.37531z"/></g><g data-paper-data="{&quot;index&quot;:null}" fill="#ffffff" stroke="#c7c7c7" stroke-width="0.5" stroke-linecap="butt"><path d="M276.6624,274.1432c4.11588,-0.28765 8.72008,9.53097 10.28378,21.93051c1.56373,12.39954 -0.50517,22.68455 -4.62107,22.9722c-4.11588,0.28765 -8.72008,-9.53097 -10.28378,-21.93051c-1.56372,-12.39954 0.50517,-22.68455 4.62108,-22.97219z"/><path d="M275.08694,266.61874c4.45886,-0.31162 8.45804,2.48516 8.93242,6.24683c0.47438,3.76162 -2.75567,7.06368 -7.21453,7.3753c-4.45886,0.31162 -8.45804,-2.48515 -8.93242,-6.24683c-0.47438,-3.76162 2.75567,-7.06369 7.21453,-7.37531z"/></g><path d="M286.1701,142.15633c0.01954,-0.57671 -9.99793,34.09964 -12.89069,27.26488c-2.47021,-5.83643 -1.18139,5.6371 -3.36327,2.68637c-4.66979,-6.31522 -4.86625,-55.61645 -12.23008,-56.39663c-5.78442,-0.61284 -1.64728,44.75333 -8.40057,40.71478c-4.47935,-2.67871 -20.09284,-28.29403 -23.10438,-27.56527c-2.89286,0.69998 5.79625,19.79004 1.27177,15.19521c-3.56071,-3.61607 -13.18989,-14.72437 -19.97393,-25.85505c-3.08407,-5.0601 -1.22197,-16.82224 -5.59549,-16.11399c-3.94494,0.63885 -7.74267,16.00048 -12.62942,22.81385c-2.71059,3.77919 -11.35127,9.67455 -13.5511,15.07473c-2.8543,7.00678 -1.96638,25.28003 -2.24757,29.87056c-0.24343,3.97464 -7.39637,7.97931 -8.31857,6.50364c-3.2532,-5.20567 -1.74809,-26.11294 -0.62126,-39.36285c0.12274,-1.44288 2.2348,18.67687 -0.81844,18.25567c-5.28524,-0.72915 -17.64715,-22.05937 -22.12797,-28.57962c-6.17879,-8.99102 -3.14499,-31.91224 -5.22579,-39.82176c-1.9673,-7.47816 7.87833,9.70979 12.64657,6.2275c2.67304,-1.95212 1.00335,-25.14116 1.4389,-26.98672c1.71068,-7.24855 2.26435,3.76513 8.59704,6.26901c6.82742,2.69951 19.39282,-2.81172 19.20749,-3.43473c-2.21821,-7.45651 41.92149,-8.90913 68.30434,-5.17272c10.35329,1.46622 19.45503,7.61642 19.71295,6.88654c1.71401,-4.85029 13.37956,5.86101 21.58649,15.40247c6.2152,7.22583 16.86827,10.56838 18.25309,10.6367c2.34977,0.11595 -1.23988,-4.88311 2.82183,2.55174c6.09014,11.14782 4.05436,48.85578 3.60967,61.98502c-0.2857,8.43476 -11.40072,26.76105 -16.56623,32.2352c-8.2373,8.72948 -1.14606,14.00661 -4.7556,13.82854c-5.87303,-0.28977 -5.77103,-43.22748 -5.02976,-65.11297z" data-paper-data="{&quot;index&quot;:null}" fill="#220e00" stroke="#1d0800" stroke-width="1" stroke-linecap="butt"/><path d="M223.84334,159.64222c0,7.81995 -3.8343,14.1593 -8.56417,14.1593c-4.72987,0 -8.56417,-6.33934 -8.56417,-14.1593c0,-7.81995 3.8343,-14.15931 8.56417,-14.15931c4.72987,0 8.56417,6.33934 8.56417,14.15931z" fill="#00f8ff" stroke="#2b1d13" stroke-width="2" stroke-linecap="butt"/><path d="M180.66334,167.10541l-3.76033,-22.5377l56.42591,0.31099" fill="none" stroke="#000000" stroke-width="3.5" stroke-linecap="round"/><path d="M260.54429,144.49426c4.72987,0 8.56417,6.33934 8.56417,14.15931c0,7.81995 -3.8343,14.1593 -8.56417,14.1593c-4.72987,0 -8.56417,-6.33934 -8.56417,-14.1593c0,-7.81995 3.8343,-14.15931 8.56417,-14.15931z" fill="#00f8ff" stroke="#2b1d13" stroke-width="2" stroke-linecap="butt"/><path d="M243.04261,174.8219c0,1.74727 1.14963,2.17505 -0.85334,2.17505c-2.00297,0 -8.40301,-5.73422 -6.40004,-5.73422c2.00297,0 7.25337,1.81191 7.25337,3.55917z" fill="#271000" stroke="none" stroke-width="0" stroke-linecap="butt"/><path d="M241.4059,144.90186l56.42561,-0.35508l-3.73983,22.54063" data-paper-data="{&quot;index&quot;:null}" fill="none" stroke="#000000" stroke-width="3.5" stroke-linecap="round"/><path d="M213.66968,135.06783h8.17153" fill="none" stroke="#000000" stroke-width="1.25" stroke-linecap="round"/><path d="M255.41253,135.04673h8.17153" fill="none" stroke="#000000" stroke-width="1.25" stroke-linecap="round"/><path d="M247.43956,188.68996c1.52367,1.45583 3.10921,3.65561 -0.00271,5.31244c-3.11192,1.65684 -14.88409,2.0355 -16.40776,0.57967c-0.3516,-0.33594 -0.74091,-1.85032 0.69638,-2.60734c4.13451,-2.17766 14.58348,-4.36507 15.71411,-3.28478z" fill="#ffffff" stroke="#000000" stroke-width="1.5" stroke-linecap="butt"/><path d="M231.16975,195.07651v-2.48058l3.02426,-1.18636l-1.0585,4.09834z" fill="#000000" stroke="none" stroke-width="0" stroke-linecap="butt"/><g data-paper-data="{&quot;index&quot;:null}" stroke-width="0.5"><g fill="#87ff8e" stroke="#66c06a" stroke-linecap="butt"><path d=""/><path d=""/><path d=""/><path d=""/><path d=""/></g><g data-paper-data="{&quot;index&quot;:null}"><path d="" data-paper-data="{&quot;index&quot;:null}" fill="#1b1b1b" stroke="none" stroke-linecap="butt"/><path d="M260.36061,130.72148l-0.00689,0.01346c-0.0064,-0.0089 -0.01282,-0.01787 -0.01924,-0.02678z" data-paper-data="{&quot;index&quot;:null}" fill="#1b1b1b" stroke="none" stroke-linecap="butt"/><path d="M254.96994,103.76206c0,0 11.21041,-1.21104 20.15825,7.18684c8.67863,8.14521 8.95641,16.99051 8.95641,16.99051" data-paper-data="{&quot;index&quot;:null}" fill="#1b1b1b" stroke="#000000" stroke-linecap="round"/><path d="M318.58029,142.77512c-3.52847,7.75135 -14.34075,-1.74268 -14.34075,-1.74268l3.73239,-10.66392c0,0 -0.26546,3.7463 -1.11257,5.14449c-5.08263,8.38887 -8.07847,6.34682 -8.07847,6.34682c0,0 -50.42868,-25.06762 -65.34425,-30.50344c-39.20221,-14.28682 -77.06316,-16.22012 -77.06316,-16.22012c0,0 0.49363,-4.49948 2.592,-8.72494c1.01801,-2.0499 3.84179,-3.87781 4.43646,-5.39769c2.70072,-6.90299 1.36169,-7.18671 2.46464,-8.98235c6.86713,-11.17983 10.26173,-5.47594 10.26173,-5.47594c0,0 -2.80342,-6.89713 0.31117,-11.23817c4.03783,-5.62773 9.31758,-15.32668 15.20278,-20.07459c5.27553,-4.25606 10.87549,-3.72936 19.17843,-6.00899c8.50578,-2.33528 18.58873,-6.82677 32.17947,-2.62322c32.09227,9.92595 44.87465,22.39 44.87465,22.39c0,0 18.21471,4.40951 23.9699,20.25149c3.15865,8.69466 11.90851,11.38384 15.19353,19.45789c4.79374,11.78218 2.46971,30.05942 -8.45793,54.06533z" data-paper-data="{&quot;index&quot;:null}" fill="#1b1b1b" stroke="#000000" stroke-linecap="butt"/><path d="M308.38149,130.52233l-133.19641,-62.90687" data-paper-data="{&quot;index&quot;:null}" fill="#1b1b1b" stroke="#000000" stroke-linecap="round"/><path d="M184.60759,55.08831c0,0 6.03242,3.2143 7.10958,6.67939c0.79265,2.54989 -1.23429,12.22084 -1.23429,12.22084" data-paper-data="{&quot;index&quot;:null}" fill="#101010" stroke="none" stroke-linecap="round"/><path d="M291.96912,121.74789c0,0 5.54688,-4.3722 8.11172,-5.31142c2.70677,-0.99122 7.7261,-0.48835 7.7261,-0.48835" data-paper-data="{&quot;index&quot;:null}" fill="#0a0a0a" stroke="none" stroke-linecap="round"/><path d="M313.869,112.96996c0,0 -8.31786,-3.59709 -11.85135,-13.69605c-1.64498,-4.70152 0.81277,-14.26829 0.81277,-14.26829" data-paper-data="{&quot;index&quot;:null}" fill="#101010" stroke="none" stroke-linecap="round"/><path d="M308.1975,70.20262c0,0 -2.32334,1.62139 -3.91382,0.8453c-7.94714,-3.87778 -16.27305,-21.769 -16.27305,-21.769" data-paper-data="{&quot;index&quot;:null}" fill="#101010" stroke="none" stroke-linecap="round"/><path d="M179.29983,70.71111l-10.09816,25.04959" data-paper-data="{&quot;index&quot;:null}" fill="#1b1b1b" stroke="#000000" stroke-linecap="round"/><path d="M200.71622,79.71318l-6.79999,19.46816" data-paper-data="{&quot;index&quot;:null}" fill="#1b1b1b" stroke="#000000" stroke-linecap="round"/><path d="M222.71767,90.12553l-6.16406,14.91164" data-paper-data="{&quot;index&quot;:null}" fill="#1b1b1b" stroke="#000000" stroke-linecap="round"/><path d="M236.72371,112.38794l5.54505,-12.34406" data-paper-data="{&quot;index&quot;:null}" fill="#1b1b1b" stroke="#000000" stroke-linecap="round"/><path d="M263.66821,111.03488l-4.53616,10.71663" data-paper-data="{&quot;index&quot;:null}" fill="#1b1b1b" stroke="#000000" stroke-linecap="round"/><path d="M285.14396,120.85661l-4.20545,10.83714" data-paper-data="{&quot;index&quot;:null}" fill="#1b1b1b" stroke="#000000" stroke-linecap="round"/><path d="M301.60056,128.05113l-4.80747,11.41577" data-paper-data="{&quot;index&quot;:null}" fill="#1b1b1b" stroke="#000000" stroke-linecap="round"/></g></g></g></g></svg>